<svg xmlns="http://www.w3.org/2000/svg" width="512" height="512" viewBox="0 0 512.001 512.001" style="enable-background:new 0 0 512 512" xml:space="preserve"><path d="M115.627 228.578c-30.685 0-55.649 24.964-55.649 55.649s24.964 55.649 55.649 55.649c30.685 0 55.649-24.964 55.649-55.649s-24.964-55.649-55.649-55.649zm0 81.328c-14.159 0-25.679-11.519-25.679-25.679 0-14.16 11.52-25.679 25.679-25.679 14.16 0 25.679 11.519 25.679 25.679 0 14.16-11.519 25.679-25.679 25.679zm151.377-41.614h29.97v29.97h-29.97zm59.94 0h29.97v29.97h-29.97zm-59.94 59.95h29.97v29.97h-29.97zm59.94 0h29.97v29.97h-29.97zM356.92 69.861v34.968h-29.974V69.861h-29.97v99.906h29.97v-34.968h29.974v34.968h29.97V69.861zM267.004 209.73h29.97v29.97h-29.97zm59.94 0h29.97v29.97h-29.97zm59.95 58.562h29.97v29.97h-29.97zm0 59.95h29.97v29.97h-29.97zm0-118.512h29.97v29.97h-29.97z" fill="#495e86" data-original="#000000" xmlns="http://www.w3.org/2000/svg"/><path d="M450.824 30.023V0H231.032v30.176H170.09v153.479c-16.203-8.809-34.759-13.817-54.464-13.817-63.075 0-114.391 51.316-114.391 114.391 0 25.77 16.905 67.833 51.682 128.591 24.853 43.42 62.708 99.181 62.708 99.181s32.71-48.182 54.464-85.01v55.359h340.674V30.226l-59.939-.203zM152.415 397.771c-13.596 23.764-27.31 45.618-36.788 60.314-9.479-14.695-23.192-36.549-36.788-60.314-41.444-72.434-47.632-102.23-47.632-113.543 0-46.549 37.871-84.421 84.421-84.421s84.421 37.871 84.421 84.421c-.002 11.314-6.189 41.11-47.634 113.543zm328.38 54.608H356.918v-61.943h-29.97v61.943H200.06v-79.647c20.106-39.69 29.957-68.844 29.957-88.503 0-29.674-11.361-56.744-29.957-77.094V60.146h60.942V29.97h159.852v29.921l59.94.204v392.284z" fill="#495e86" data-original="#000000" xmlns="http://www.w3.org/2000/svg"/></svg>