<svg xmlns="http://www.w3.org/2000/svg" width="512" height="512" style="enable-background:new 0 0 512 512" xml:space="preserve"><g xmlns="http://www.w3.org/2000/svg" fill="#fff"><path d="M0 349.022c0 12.187 13.808 19.277 23.711 12.211l82.471-58.832a40.351 40.351 0 0 1 23.563-7.542h181.382c31.928 0 57.902-25.975 57.902-57.902V46.626c0-8.284-6.716-15-15-15H57.902C25.975 31.626 0 57.6 0 89.528zM30 89.528c0-15.386 12.517-27.902 27.902-27.902h281.126v175.331c0 15.386-12.517 27.902-27.902 27.902H129.744c-14.78 0-28.952 4.537-40.984 13.12L30 319.896z" data-original="#000000"/><path d="M512 205.876c0-31.932-25.974-57.91-57.9-57.91h-40.07c-8.284 0-15 6.716-15 15s6.716 15 15 15h40.07c15.385 0 27.9 12.521 27.9 27.91V436.24l-58.759-41.915c-12.031-8.583-26.202-13.119-40.981-13.119H200.87c-15.385 0-27.9-12.521-27.9-27.91v-13.439c0-8.284-6.716-15-15-15s-15 6.716-15 15v13.439c0 31.932 25.974 57.91 57.9 57.91h181.39a40.341 40.341 0 0 1 23.56 7.541l82.47 58.83c9.853 7.031 23.711.015 23.711-12.211v-259.49zm-404.138-62.537h173.304c8.284 0 15-6.716 15-15s-6.716-15-15-15H107.862c-8.284 0-15 6.716-15 15s6.716 15 15 15zm0 70h173.304c8.284 0 15-6.716 15-15s-6.716-15-15-15H107.862c-8.284 0-15 6.716-15 15s6.716 15 15 15z" data-original="#000000"/></g></svg>