<svg id="b" data-name="Ebene 2" xmlns="http://www.w3.org/2000/svg" viewBox="0 0 364.62 364.62"><defs><style>.d{fill:#c5231b;stroke:#c5231b;stroke-miterlimit:10;stroke-width:.43px}.e,.f{fill:#00223d}.e{stroke-miterlimit:10;stroke-width:.43px;stroke:#00223d}.f{stroke-width:0}</style></defs><g id="c" data-name="Ebene 1"><path class="f" d="M257.08 128.9V0H0v192.99h43.44v42.73l56.97-42.73h7.12v128.9H264.2l56.97 42.73v-42.73h43.44V128.9H257.08ZM93.29 171.63 64.8 192.99v-21.36H21.36V21.36h214.36v107.53H107.53v42.73H93.29Zm249.96 128.9h-43.44v21.36l-28.49-21.36H128.89V150.27h214.36v150.26Z"/><circle class="f" cx="201.16" cy="245.12" r="9.5"/><circle class="f" cx="237.16" cy="245.12" r="9.5"/><circle class="f" cx="273.16" cy="245.12" r="9.5"/><path class="d" d="M79.08 37.55c-2.14.77-3.78 2.05-4.9 3.81-4.74 7.42 2.34 16.61 10.75 13.98 2.59-.8 5.28-3.46 6.02-5.89 1.02-3.49.35-6.72-1.95-9.28-2.43-2.72-6.56-3.81-9.92-2.62Zm5.15 2.37c1.63.51 3.81 2.62 4.35 4.26.58 1.79.26 4.35-.74 5.89-3.07 4.64-9.69 4.16-11.97-.83-1.57-3.39-.26-7.07 3.07-8.8 1.86-.99 3.23-1.12 5.28-.51Z"/><path class="e" d="M56.09 37.55c-2.14.77-3.78 2.05-4.9 3.81-4.74 7.42 2.34 16.61 10.75 13.98 2.59-.8 5.28-3.46 6.02-5.89 1.02-3.49.35-6.72-1.95-9.28-2.43-2.72-6.56-3.81-9.92-2.62Zm5.15 2.37c1.63.51 3.81 2.62 4.35 4.26.57 1.79.26 4.35-.74 5.89-3.07 4.64-9.69 4.16-11.97-.83-1.57-3.39-.26-7.07 3.07-8.8 1.85-.99 3.23-1.12 5.28-.51Zm17.85 18.45c-2.14.77-3.78 2.05-4.9 3.81-4.74 7.42 2.34 16.61 10.75 13.98 2.59-.8 5.28-3.46 6.02-5.89 1.02-3.49.35-6.72-1.95-9.28-2.43-2.72-6.56-3.81-9.92-2.62Zm5.15 2.37c1.63.51 3.81 2.62 4.35 4.26.58 1.79.26 4.35-.74 5.89-3.07 4.64-9.69 4.16-11.97-.83-1.57-3.39-.26-7.07 3.07-8.8 1.86-.99 3.23-1.12 5.28-.51Zm-28.15-2.37c-2.14.77-3.78 2.05-4.9 3.81-4.74 7.42 2.34 16.61 10.75 13.98 2.59-.8 5.28-3.46 6.02-5.89 1.02-3.49.35-6.72-1.95-9.28-2.43-2.72-6.56-3.81-9.92-2.62Zm5.15 2.37c1.63.51 3.81 2.62 4.35 4.26.57 1.79.26 4.35-.74 5.89-3.07 4.64-9.69 4.16-11.97-.83-1.57-3.39-.26-7.07 3.07-8.8 1.85-.99 3.23-1.12 5.28-.51Zm40.84-23.24c-2.14.77-3.78 2.05-4.9 3.81-4.74 7.42 2.34 16.61 10.75 13.98 2.59-.8 5.28-3.46 6.02-5.89 1.02-3.49.35-6.72-1.95-9.28-2.43-2.72-6.56-3.81-9.92-2.62Zm5.15 2.37c1.63.51 3.81 2.62 4.35 4.26.58 1.79.26 4.35-.74 5.89-3.07 4.64-9.69 4.16-11.97-.83-1.57-3.39-.26-7.07 3.07-8.8 1.86-.99 3.23-1.12 5.28-.51Zm-5.14 18.45c-2.14.77-3.78 2.05-4.9 3.81-4.74 7.42 2.34 16.61 10.75 13.98 2.59-.8 5.28-3.46 6.02-5.89 1.02-3.49.35-6.72-1.95-9.28-2.43-2.72-6.56-3.81-9.92-2.62Zm5.15 2.37c1.63.51 3.81 2.62 4.35 4.26.58 1.79.26 4.35-.74 5.89-3.07 4.64-9.69 4.16-11.97-.83-1.57-3.39-.26-7.07 3.07-8.8 1.86-.99 3.23-1.12 5.28-.51Zm41.84-23.14c-2.14.77-3.78 2.05-4.9 3.81-4.74 7.42 2.34 16.61 10.75 13.98 2.59-.8 5.28-3.46 6.02-5.89 1.02-3.49.35-6.72-1.95-9.28-2.43-2.72-6.56-3.81-9.92-2.62Zm5.15 2.37c1.63.51 3.81 2.62 4.35 4.26.58 1.79.26 4.35-.74 5.89-3.07 4.64-9.69 4.16-11.97-.83-1.57-3.39-.26-7.07 3.07-8.8 1.86-.99 3.23-1.12 5.28-.51Zm-28.14-2.37c-2.14.77-3.78 2.05-4.9 3.81-4.74 7.42 2.34 16.61 10.75 13.98 2.59-.8 5.28-3.46 6.02-5.89 1.02-3.49.35-6.72-1.95-9.28-2.43-2.72-6.56-3.81-9.92-2.62Zm5.15 2.37c1.63.51 3.81 2.62 4.35 4.26.57 1.79.26 4.35-.74 5.89-3.07 4.64-9.69 4.16-11.97-.83-1.57-3.39-.26-7.07 3.07-8.8 1.85-.99 3.23-1.12 5.28-.51Zm17.85 18.45c-2.14.77-3.78 2.05-4.9 3.81-4.74 7.42 2.34 16.61 10.75 13.98 2.59-.8 5.28-3.46 6.02-5.89 1.02-3.49.35-6.72-1.95-9.28-2.43-2.72-6.56-3.81-9.92-2.62Zm5.15 2.37c1.63.51 3.81 2.62 4.35 4.26.58 1.79.26 4.35-.74 5.89-3.07 4.64-9.69 4.16-11.97-.83-1.57-3.39-.26-7.07 3.07-8.8 1.86-.99 3.23-1.12 5.28-.51Zm-28.15-2.37c-2.14.77-3.78 2.05-4.9 3.81-4.74 7.42 2.34 16.61 10.75 13.98 2.59-.8 5.28-3.46 6.02-5.89 1.02-3.49.35-6.72-1.95-9.28-2.43-2.72-6.56-3.81-9.92-2.62Zm5.15 2.37c1.63.51 3.81 2.62 4.35 4.26.57 1.79.26 4.35-.74 5.89-3.07 4.64-9.69 4.16-11.97-.83-1.57-3.39-.26-7.07 3.07-8.8 1.85-.99 3.23-1.12 5.28-.51Zm40.84-23.24c-2.14.77-3.78 2.05-4.9 3.81-4.74 7.42 2.34 16.61 10.75 13.98 2.59-.8 5.28-3.46 6.02-5.89 1.02-3.49.35-6.72-1.95-9.28-2.43-2.72-6.56-3.81-9.92-2.62Zm5.15 2.37c1.63.51 3.81 2.62 4.35 4.26.58 1.79.26 4.35-.74 5.89-3.07 4.64-9.69 4.16-11.97-.83-1.57-3.39-.26-7.07 3.07-8.8 1.86-.99 3.23-1.12 5.28-.51Zm-5.14 18.45c-2.14.77-3.78 2.05-4.9 3.81-4.74 7.42 2.34 16.61 10.75 13.98 2.59-.8 5.28-3.46 6.02-5.89 1.02-3.49.35-6.72-1.95-9.28-2.43-2.72-6.56-3.81-9.92-2.62Zm5.15 2.37c1.63.51 3.81 2.62 4.35 4.26.58 1.79.26 4.35-.74 5.89-3.07 4.64-9.69 4.16-11.97-.83-1.57-3.39-.26-7.07 3.07-8.8 1.86-.99 3.23-1.12 5.28-.51Zm17.84-23.19c-2.14.77-3.78 2.05-4.9 3.81-4.74 7.42 2.34 16.61 10.75 13.98 2.59-.8 5.28-3.46 6.02-5.89 1.02-3.49.35-6.72-1.95-9.28-2.43-2.72-6.56-3.81-9.92-2.62Zm5.15 2.37c1.63.51 3.81 2.62 4.35 4.26.58 1.79.26 4.35-.74 5.89-3.07 4.64-9.69 4.16-11.97-.83-1.57-3.39-.26-7.07 3.07-8.8 1.86-.99 3.23-1.12 5.28-.51Zm-5.14 18.45c-2.14.77-3.78 2.05-4.9 3.81-4.74 7.42 2.34 16.61 10.75 13.98 2.59-.8 5.28-3.46 6.02-5.89 1.02-3.49.35-6.72-1.95-9.28-2.43-2.72-6.56-3.81-9.92-2.62Zm5.15 2.37c1.63.51 3.81 2.62 4.35 4.26.58 1.79.26 4.35-.74 5.89-3.07 4.64-9.69 4.16-11.97-.83-1.57-3.39-.26-7.07 3.07-8.8 1.86-.99 3.23-1.12 5.28-.51ZM79.08 79.55c-2.14.77-3.78 2.05-4.9 3.81-4.74 7.42 2.34 16.61 10.75 13.98 2.59-.8 5.28-3.46 6.02-5.89 1.02-3.49.35-6.72-1.95-9.28-2.43-2.72-6.56-3.81-9.92-2.62Zm5.15 2.37c1.63.51 3.81 2.62 4.35 4.26.58 1.79.26 4.35-.74 5.89-3.07 4.64-9.69 4.16-11.97-.83-1.57-3.39-.26-7.07 3.07-8.8 1.86-.99 3.23-1.12 5.28-.51Zm-28.14-2.37c-2.14.77-3.78 2.05-4.9 3.81-4.74 7.42 2.34 16.61 10.75 13.98 2.59-.8 5.28-3.46 6.02-5.89 1.02-3.49.35-6.72-1.95-9.28-2.43-2.72-6.56-3.81-9.92-2.62Zm5.15 2.37c1.63.51 3.81 2.62 4.35 4.26.57 1.79.26 4.35-.74 5.89-3.07 4.64-9.69 4.16-11.97-.83-1.57-3.39-.26-7.07 3.07-8.8 1.85-.99 3.23-1.12 5.28-.51Zm17.85 18.45c-2.14.77-3.78 2.05-4.9 3.81-4.74 7.42 2.34 16.61 10.75 13.98 2.59-.8 5.28-3.46 6.02-5.89 1.02-3.49.35-6.72-1.95-9.28-2.43-2.72-6.56-3.81-9.92-2.62Zm5.15 2.37c1.63.51 3.81 2.62 4.35 4.26.58 1.79.26 4.35-.74 5.89-3.07 4.64-9.69 4.16-11.97-.83-1.57-3.39-.26-7.07 3.07-8.8 1.86-.99 3.23-1.12 5.28-.51Zm-28.15-2.37c-2.14.77-3.78 2.05-4.9 3.81-4.74 7.42 2.34 16.61 10.75 13.98 2.59-.8 5.28-3.46 6.02-5.89 1.02-3.49.35-6.72-1.95-9.28-2.43-2.72-6.56-3.81-9.92-2.62Zm5.15 2.37c1.63.51 3.81 2.62 4.35 4.26.57 1.79.26 4.35-.74 5.89-3.07 4.64-9.69 4.16-11.97-.83-1.57-3.39-.26-7.07 3.07-8.8 1.85-.99 3.23-1.12 5.28-.51Zm40.84-23.24c-2.14.77-3.78 2.05-4.9 3.81-4.74 7.42 2.34 16.61 10.75 13.98 2.59-.8 5.28-3.46 6.02-5.89 1.02-3.49.35-6.72-1.95-9.28-2.43-2.72-6.56-3.81-9.92-2.62Zm5.15 2.37c1.63.51 3.81 2.62 4.35 4.26.58 1.79.26 4.35-.74 5.89-3.07 4.64-9.69 4.16-11.97-.83-1.57-3.39-.26-7.07 3.07-8.8 1.86-.99 3.23-1.12 5.28-.51Zm-5.14 18.45c-2.14.77-3.78 2.05-4.9 3.81-4.74 7.42 2.34 16.61 10.75 13.98 2.59-.8 5.28-3.46 6.02-5.89 1.02-3.49.35-6.72-1.95-9.28-2.43-2.72-6.56-3.81-9.92-2.62Zm5.15 2.37c1.63.51 3.81 2.62 4.35 4.26.58 1.79.26 4.35-.74 5.89-3.07 4.64-9.69 4.16-11.97-.83-1.57-3.39-.26-7.07 3.07-8.8 1.86-.99 3.23-1.12 5.28-.51Z"/><path class="d" d="M149.08 79.55c-2.14.77-3.78 2.05-4.9 3.81-4.74 7.42 2.34 16.61 10.75 13.98 2.59-.8 5.28-3.46 6.02-5.89 1.02-3.49.35-6.72-1.95-9.28-2.43-2.72-6.56-3.81-9.92-2.62Zm5.15 2.37c1.63.51 3.81 2.62 4.35 4.26.58 1.79.26 4.35-.74 5.89-3.07 4.64-9.69 4.16-11.97-.83-1.57-3.39-.26-7.07 3.07-8.8 1.86-.99 3.23-1.12 5.28-.51Z"/><path class="e" d="M126.09 79.55c-2.14.77-3.78 2.05-4.9 3.81-4.74 7.42 2.34 16.61 10.75 13.98 2.59-.8 5.28-3.46 6.02-5.89 1.02-3.49.35-6.72-1.95-9.28-2.43-2.72-6.56-3.81-9.92-2.62Zm5.15 2.37c1.63.51 3.81 2.62 4.35 4.26.57 1.79.26 4.35-.74 5.89-3.07 4.64-9.69 4.16-11.97-.83-1.57-3.39-.26-7.07 3.07-8.8 1.85-.99 3.23-1.12 5.28-.51Zm17.85 18.45c-2.14.77-3.78 2.05-4.9 3.81-4.74 7.42 2.34 16.61 10.75 13.98 2.59-.8 5.28-3.46 6.02-5.89 1.02-3.49.35-6.72-1.95-9.28-2.43-2.72-6.56-3.81-9.92-2.62Zm5.15 2.37c1.63.51 3.81 2.62 4.35 4.26.58 1.79.26 4.35-.74 5.89-3.07 4.64-9.69 4.16-11.97-.83-1.57-3.39-.26-7.07 3.07-8.8 1.86-.99 3.23-1.12 5.28-.51Zm-28.15-2.37c-2.14.77-3.78 2.05-4.9 3.81-4.74 7.42 2.34 16.61 10.75 13.98 2.59-.8 5.28-3.46 6.02-5.89 1.02-3.49.35-6.72-1.95-9.28-2.43-2.72-6.56-3.81-9.92-2.62Zm5.15 2.37c1.63.51 3.81 2.62 4.35 4.26.57 1.79.26 4.35-.74 5.89-3.07 4.64-9.69 4.16-11.97-.83-1.57-3.39-.26-7.07 3.07-8.8 1.85-.99 3.23-1.12 5.28-.51Zm40.84-23.24c-2.14.77-3.78 2.05-4.9 3.81-4.74 7.42 2.34 16.61 10.75 13.98 2.59-.8 5.28-3.46 6.02-5.89 1.02-3.49.35-6.72-1.95-9.28-2.43-2.72-6.56-3.81-9.92-2.62Zm5.15 2.37c1.63.51 3.81 2.62 4.35 4.26.58 1.79.26 4.35-.74 5.89-3.07 4.64-9.69 4.16-11.97-.83-1.57-3.39-.26-7.07 3.07-8.8 1.86-.99 3.23-1.12 5.28-.51Zm-5.14 18.45c-2.14.77-3.78 2.05-4.9 3.81-4.74 7.42 2.34 16.61 10.75 13.98 2.59-.8 5.28-3.46 6.02-5.89 1.02-3.49.35-6.72-1.95-9.28-2.43-2.72-6.56-3.81-9.92-2.62Zm5.15 2.37c1.63.51 3.81 2.62 4.35 4.26.58 1.79.26 4.35-.74 5.89-3.07 4.64-9.69 4.16-11.97-.83-1.57-3.39-.26-7.07 3.07-8.8 1.86-.99 3.23-1.12 5.28-.51Zm17.84-23.19c-2.14.77-3.78 2.05-4.9 3.81-4.74 7.42 2.34 16.61 10.75 13.98 2.59-.8 5.28-3.46 6.02-5.89 1.02-3.49.35-6.72-1.95-9.28-2.43-2.72-6.56-3.81-9.92-2.62Zm5.15 2.37c1.63.51 3.81 2.62 4.35 4.26.58 1.79.26 4.35-.74 5.89-3.07 4.64-9.69 4.16-11.97-.83-1.57-3.39-.26-7.07 3.07-8.8 1.86-.99 3.23-1.12 5.28-.51Zm-5.14 18.45c-2.14.77-3.78 2.05-4.9 3.81-4.74 7.42 2.34 16.61 10.75 13.98 2.59-.8 5.28-3.46 6.02-5.89 1.02-3.49.35-6.72-1.95-9.28-2.43-2.72-6.56-3.81-9.92-2.62Zm5.15 2.37c1.63.51 3.81 2.62 4.35 4.26.58 1.79.26 4.35-.74 5.89-3.07 4.64-9.69 4.16-11.97-.83-1.57-3.39-.26-7.07 3.07-8.8 1.86-.99 3.23-1.12 5.28-.51ZM56.13 122.02c-2.14.77-3.78 2.05-4.9 3.81-4.74 7.42 2.34 16.61 10.75 13.98 2.59-.8 5.28-3.46 6.02-5.89 1.02-3.49.35-6.72-1.95-9.28-2.43-2.72-6.56-3.81-9.92-2.62Zm5.15 2.37c1.63.51 3.81 2.62 4.35 4.26.58 1.79.26 4.35-.74 5.89-3.07 4.64-9.69 4.16-11.97-.83-1.57-3.39-.26-7.07 3.07-8.8 1.86-.99 3.23-1.12 5.28-.51Zm17.85-2.37c-2.14.77-3.78 2.05-4.9 3.81-4.74 7.42 2.34 16.61 10.75 13.98 2.59-.8 5.28-3.46 6.02-5.89 1.02-3.49.35-6.72-1.95-9.28-2.43-2.72-6.56-3.81-9.92-2.62Zm5.15 2.37c1.63.51 3.81 2.62 4.35 4.26.58 1.79.26 4.35-.74 5.89-3.07 4.64-9.69 4.16-11.97-.83-1.57-3.39-.26-7.07 3.07-8.8 1.86-.99 3.23-1.12 5.28-.51Z"/></g></svg>