<?xml version="1.0" encoding="UTF-8"?><svg id="Ebene_2" xmlns="http://www.w3.org/2000/svg" viewBox="0 0 336.96 74.83"><defs><style>.cls-1{fill:#c5231b;}.cls-2{fill:#e64536;}.cls-3{fill:#00617e;}.cls-4{fill:#00223d;}</style></defs><g id="Ebene_1-2"><path class="cls-1" d="M46.09,32.7c-1.06,1.06-2.78,1.06-3.84,0-1.06-1.06-1.06-2.78,0-3.84,1.06-1.06,2.78-1.06,3.84,0,1.06,1.06,1.06,2.78,0,3.84Z"/><path class="cls-3" d="M46.88,40.22c-1.5,0-2.72-1.22-2.72-2.72s1.22-2.72,2.72-2.72,2.72,1.22,2.72,2.72-1.22,2.72-2.72,2.72Z"/><path class="cls-3" d="M42.13,46.09c-1.06-1.06-1.06-2.78,0-3.84,1.06-1.06,2.78-1.06,3.84,0,1.06,1.06,1.06,2.78,0,3.84-1.06,1.06-2.78,1.06-3.84,0Z"/><path class="cls-3" d="M34.61,46.88c0-1.5,1.22-2.72,2.72-2.72,1.5,0,2.72,1.22,2.72,2.72s-1.22,2.72-2.72,2.72-2.72-1.22-2.72-2.72Z"/><path class="cls-3" d="M28.73,42.13c1.06-1.06,2.78-1.06,3.84,0,1.06,1.06,1.06,2.78,0,3.85-1.06,1.06-2.78,1.06-3.84,0-1.06-1.06-1.06-2.78,0-3.85Z"/><path class="cls-3" d="M27.95,34.61c1.5,0,2.72,1.22,2.72,2.72s-1.22,2.72-2.72,2.72-2.72-1.22-2.72-2.72,1.22-2.72,2.72-2.72Z"/><path class="cls-3" d="M32.7,28.74c1.06,1.06,1.06,2.78,0,3.84-1.06,1.06-2.78,1.06-3.84,0-1.06-1.06-1.06-2.78,0-3.84,1.06-1.06,2.78-1.06,3.84,0Z"/><path class="cls-3" d="M40.22,27.95c0,1.5-1.22,2.72-2.72,2.72s-2.72-1.22-2.72-2.72,1.22-2.72,2.72-2.72,2.72,1.22,2.72,2.72Z"/><path class="cls-2" d="M19.53,10.99c2.4,2.38,2.42,6.25,.05,8.65-2.37,2.4-6.25,2.42-8.65,.04s-2.42-6.25-.05-8.65c2.38-2.4,6.25-2.42,8.65-.05Z"/><path class="cls-1" d="M63.92,19.65c-2.39,2.39-6.26,2.39-8.65,0-2.39-2.39-2.39-6.26,0-8.65,2.39-2.39,6.26-2.39,8.65,0,2.39,2.39,2.39,6.26,0,8.65Z"/><path class="cls-1" d="M53.58,27.18c-1.6,1.59-4.18,1.58-5.77,0-1.59-1.59-1.59-4.18,0-5.77,1.6-1.59,4.17-1.59,5.76,0,1.59,1.59,1.59,4.18,0,5.77Z"/><path class="cls-4" d="M43.62,6.11c0,3.38-2.74,6.12-6.12,6.12s-6.12-2.74-6.12-6.12,2.74-6.11,6.12-6.11,6.12,2.74,6.12,6.11Z"/><path class="cls-4" d="M68.72,43.57c-3.38,0-6.12-2.73-6.12-6.11,0-3.38,2.73-6.12,6.11-6.12,3.38,0,6.12,2.73,6.12,6.11,0,3.38-2.73,6.12-6.11,6.12Z"/><path class="cls-4" d="M55.22,63.89c-2.39-2.38-2.4-6.26-.02-8.65,2.38-2.39,6.25-2.4,8.65-.02,2.39,2.38,2.4,6.26,.02,8.65-2.38,2.39-6.25,2.4-8.65,.02Z"/><path class="cls-4" d="M31.31,68.73c-.01-3.38,2.72-6.12,6.1-6.13,3.38,0,6.12,2.72,6.13,6.1,0,3.38-2.72,6.12-6.1,6.13-3.38,0-6.12-2.72-6.13-6.1Z"/><path class="cls-4" d="M10.96,55.26c2.38-2.4,6.25-2.41,8.65-.03,2.4,2.38,2.41,6.25,.03,8.65-2.38,2.4-6.25,2.41-8.65,.03-2.4-2.38-2.41-6.25-.03-8.65Z"/><path class="cls-4" d="M6.09,31.35c3.38-.02,6.13,2.71,6.14,6.09,.02,3.38-2.71,6.13-6.09,6.14C2.76,43.6,.01,40.87,0,37.5c-.02-3.38,2.71-6.13,6.09-6.14Z"/><path class="cls-4" d="M19.53,10.99c2.4,2.38,2.42,6.25,.05,8.65-2.37,2.4-6.25,2.42-8.65,.04s-2.42-6.25-.05-8.65c2.38-2.4,6.25-2.42,8.65-.05Z"/><path class="cls-4" d="M41.58,18.74c0,2.25-1.83,4.08-4.08,4.08s-4.08-1.83-4.08-4.08,1.83-4.08,4.08-4.08,4.08,1.83,4.08,4.08Z"/><path class="cls-4" d="M56.08,41.64c-2.25,0-4.07-1.84-4.06-4.09,0-2.25,1.84-4.07,4.09-4.06,2.25,0,4.07,1.84,4.06,4.09,0,2.25-1.84,4.07-4.09,4.06Z"/><path class="cls-4" d="M47.6,53.61c-1.58-1.6-1.57-4.18,.03-5.77,1.6-1.58,4.18-1.57,5.77,.03,1.58,1.6,1.57,4.18-.03,5.77-1.6,1.58-4.18,1.57-5.77-.03Z"/><path class="cls-4" d="M33.13,56.06c.01-2.25,1.85-4.07,4.1-4.05,2.25,.01,4.07,1.85,4.05,4.1-.01,2.25-1.85,4.07-4.1,4.05-2.25-.01-4.07-1.85-4.05-4.1Z"/><path class="cls-4" d="M21.18,47.55c1.6-1.58,4.19-1.56,5.77,.04,1.58,1.61,1.56,4.19-.05,5.77-1.6,1.58-4.19,1.56-5.77-.04-1.58-1.6-1.56-4.19,.05-5.76Z"/><path class="cls-4" d="M18.78,33.08c2.25,.02,4.06,1.86,4.04,4.12-.02,2.25-1.86,4.06-4.12,4.04-2.25-.02-4.06-1.86-4.04-4.12,.02-2.25,1.86-4.06,4.12-4.04Z"/><path class="cls-4" d="M27.33,21.15c1.57,1.61,1.55,4.19-.06,5.77-1.61,1.57-4.19,1.55-5.76-.06-1.58-1.61-1.55-4.19,.06-5.77,1.61-1.58,4.19-1.55,5.77,.06Z"/><g><path class="cls-1" d="M105.19,39.79l-6.88-22.4h-.18c.25,4.56,.37,7.6,.37,9.12v13.28h-5.41V11.23h8.24l6.76,21.84h.12l7.17-21.84h8.24v28.55h-5.64v-13.52c0-.64,0-1.37,.03-2.21,.02-.83,.11-3.05,.26-6.64h-.18l-7.36,22.36h-5.55Z"/><path class="cls-1" d="M156.73,25.47c0,4.73-1.17,8.36-3.52,10.9s-5.7,3.81-10.08,3.81-7.73-1.27-10.08-3.81-3.52-6.18-3.52-10.94,1.17-8.38,3.53-10.89c2.35-2.51,5.72-3.76,10.11-3.76s7.74,1.26,10.07,3.79c2.32,2.53,3.49,6.16,3.49,10.9Zm-20.84,0c0,3.19,.61,5.59,1.82,7.21,1.21,1.61,3.02,2.42,5.43,2.42,4.83,0,7.25-3.21,7.25-9.63s-2.4-9.65-7.21-9.65c-2.41,0-4.23,.81-5.45,2.43-1.22,1.62-1.84,4.03-1.84,7.22Z"/><path class="cls-1" d="M168.7,28.83v10.96h-6.05V11.23h8.32c3.88,0,6.75,.71,8.61,2.12,1.86,1.41,2.79,3.56,2.79,6.44,0,1.68-.46,3.17-1.39,4.48-.92,1.31-2.23,2.33-3.93,3.08,4.3,6.42,7.1,10.57,8.4,12.44h-6.72l-6.82-10.96h-3.22Zm0-4.92h1.95c1.91,0,3.33-.32,4.24-.96,.91-.64,1.37-1.64,1.37-3.01s-.47-2.32-1.4-2.89c-.93-.57-2.37-.86-4.33-.86h-1.84v7.71Z"/><path class="cls-1" d="M205.5,39.79h-16.45V11.23h16.45v4.96h-10.39v6.27h9.67v4.96h-9.67v7.36h10.39v5Z"/><path class="cls-1" d="M227.9,32.19c0,2.51-.91,4.47-2.73,5.88-1.82,1.41-4.3,2.11-7.42,2.11-3.38,0-5.99-.44-7.81-1.31v-3.2c1.17,.5,2.45,.89,3.83,1.17,1.38,.29,2.75,.43,4.1,.43,2.21,0,3.88-.42,5-1.26,1.12-.84,1.68-2.01,1.68-3.51,0-.99-.2-1.8-.6-2.43-.4-.63-1.06-1.21-1.99-1.75-.93-.53-2.35-1.14-4.25-1.82-2.66-.95-4.55-2.08-5.69-3.38-1.14-1.3-1.71-3-1.71-5.1,0-2.2,.83-3.95,2.48-5.25,1.65-1.3,3.84-1.95,6.56-1.95s5.45,.52,7.83,1.56l-1.04,2.89c-2.36-.99-4.65-1.48-6.88-1.48-1.76,0-3.13,.38-4.12,1.13-.99,.76-1.48,1.8-1.48,3.14,0,.99,.18,1.8,.55,2.43,.37,.63,.98,1.21,1.85,1.74,.87,.53,2.19,1.11,3.97,1.75,3,1.07,5.06,2.21,6.18,3.44,1.13,1.22,1.69,2.81,1.69,4.77Z"/><path class="cls-1" d="M258.53,25.47c0,4.57-1.15,8.16-3.47,10.78-2.31,2.62-5.52,3.93-9.64,3.93s-7.45-1.29-9.74-3.86c-2.29-2.57-3.43-6.2-3.43-10.89s1.15-8.25,3.44-10.81c2.29-2.56,5.55-3.84,9.77-3.84s7.3,1.3,9.61,3.91c2.3,2.6,3.46,6.2,3.46,10.78Zm-22.75,0c0,3.87,.82,6.8,2.47,8.8,1.65,2,4.04,3,7.18,3s5.55-1,7.17-2.99c1.62-1.99,2.42-4.93,2.42-8.81s-.8-6.75-2.41-8.74c-1.61-1.99-3.99-2.98-7.14-2.98s-5.57,1-7.22,3c-1.65,2-2.47,4.91-2.47,8.72Z"/><path class="cls-1" d="M283,19.55c0,2.89-.99,5.11-2.96,6.67-1.97,1.56-4.79,2.33-8.47,2.33h-3.36v11.23h-3.32V11.23h7.4c7.14,0,10.7,2.77,10.7,8.32Zm-14.79,6.15h2.99c2.94,0,5.07-.48,6.39-1.43,1.32-.95,1.97-2.47,1.97-4.57,0-1.89-.62-3.29-1.86-4.22-1.24-.92-3.16-1.39-5.78-1.39h-3.71v11.6Z"/><path class="cls-1" d="M310.65,39.79h-3.32v-13.44h-15.04v13.44h-3.32V11.23h3.32v12.15h15.04V11.23h3.32v28.55Z"/><path class="cls-1" d="M325.75,25.51l7.62-14.28h3.59l-9.53,17.48v11.07h-3.36v-10.92l-9.51-17.64h3.63l7.56,14.28Z"/></g><g><path class="cls-4" d="M98.23,51.86c-1.27,0-2.28,.45-3.01,1.35-.73,.9-1.09,2.15-1.09,3.74s.35,2.92,1.05,3.78c.7,.85,1.72,1.28,3.05,1.28,.58,0,1.13-.06,1.67-.17,.54-.11,1.1-.26,1.68-.44v1.9c-1.06,.4-2.27,.6-3.62,.6-1.99,0-3.51-.6-4.57-1.8-1.06-1.2-1.6-2.92-1.6-5.16,0-1.41,.26-2.64,.77-3.7,.52-1.06,1.26-1.87,2.24-2.43,.98-.56,2.12-.84,3.44-.84,1.39,0,2.67,.29,3.84,.87l-.8,1.85c-.46-.22-.94-.41-1.45-.57-.51-.16-1.05-.25-1.61-.25Z"/><path class="cls-4" d="M118.92,56.92c0,2.21-.55,3.92-1.66,5.15-1.1,1.22-2.67,1.84-4.69,1.84s-3.62-.61-4.72-1.82c-1.1-1.21-1.65-2.94-1.65-5.18s.55-3.96,1.66-5.16c1.1-1.2,2.68-1.8,4.73-1.8s3.57,.61,4.68,1.83c1.1,1.22,1.65,2.94,1.65,5.15Zm-10.35,0c0,1.67,.34,2.94,1.01,3.8,.67,.86,1.67,1.29,3,1.29s2.31-.43,2.98-1.28c.67-.85,1.01-2.12,1.01-3.81s-.33-2.93-1-3.79c-.66-.86-1.66-1.29-2.97-1.29s-2.33,.43-3.01,1.29c-.68,.86-1.02,2.12-1.02,3.79Z"/><path class="cls-4" d="M135.51,63.72h-2.72l-6.67-10.81h-.07l.05,.6c.09,1.15,.13,2.2,.13,3.15v7.05h-2.01v-13.56h2.69l6.65,10.75h.06c-.01-.14-.04-.66-.07-1.55-.04-.89-.06-1.59-.06-2.09v-7.11h2.03v13.56Z"/><path class="cls-4" d="M146.15,63.72h-2.22v-11.66h-3.99v-1.9h10.2v1.9h-3.99v11.66Z"/><path class="cls-4" d="M162.26,63.72h-7.67v-13.56h7.67v1.87h-5.46v3.69h5.11v1.86h-5.11v4.26h5.46v1.88Z"/><path class="cls-4" d="M178.87,63.72h-2.72l-6.67-10.81h-.07l.05,.6c.09,1.15,.13,2.2,.13,3.15v7.05h-2.01v-13.56h2.69l6.65,10.75h.06c-.01-.14-.04-.66-.07-1.55-.04-.89-.06-1.59-.06-2.09v-7.11h2.03v13.56Z"/><path class="cls-4" d="M189.51,63.72h-2.22v-11.66h-3.99v-1.9h10.2v1.9h-3.99v11.66Z"/><path class="cls-4" d="M205.26,63.72v-13.56h2.22v13.56h-2.22Z"/><path class="cls-4" d="M224.73,63.72h-2.72l-6.67-10.81h-.07l.05,.6c.09,1.15,.13,2.2,.13,3.15v7.05h-2.01v-13.56h2.69l6.65,10.75h.06c-.01-.14-.04-.66-.07-1.55-.04-.89-.06-1.59-.06-2.09v-7.11h2.03v13.56Z"/><path class="cls-4" d="M243.77,51.86c-1.27,0-2.28,.45-3.01,1.35-.73,.9-1.09,2.15-1.09,3.74s.35,2.92,1.05,3.78c.7,.85,1.72,1.28,3.05,1.28,.58,0,1.13-.06,1.67-.17,.54-.11,1.1-.26,1.68-.44v1.9c-1.06,.4-2.27,.6-3.62,.6-1.99,0-3.51-.6-4.57-1.8-1.06-1.2-1.6-2.92-1.6-5.16,0-1.41,.26-2.64,.78-3.7,.52-1.06,1.26-1.87,2.24-2.43,.98-.56,2.12-.84,3.44-.84,1.39,0,2.67,.29,3.84,.87l-.8,1.85c-.46-.22-.94-.41-1.45-.57-.51-.16-1.05-.25-1.61-.25Z"/><path class="cls-4" d="M264.46,56.92c0,2.21-.55,3.92-1.66,5.15s-2.67,1.84-4.69,1.84-3.62-.61-4.72-1.82c-1.1-1.21-1.65-2.94-1.65-5.18s.55-3.96,1.66-5.16c1.1-1.2,2.68-1.8,4.73-1.8s3.57,.61,4.68,1.83c1.1,1.22,1.65,2.94,1.65,5.15Zm-10.35,0c0,1.67,.34,2.94,1.01,3.8,.67,.86,1.67,1.29,3,1.29s2.31-.43,2.98-1.28,1.01-2.12,1.01-3.81-.33-2.93-1-3.79c-.67-.86-1.66-1.29-2.97-1.29s-2.33,.43-3.01,1.29c-.68,.86-1.02,2.12-1.02,3.79Z"/><path class="cls-4" d="M281.05,63.72h-2.72l-6.67-10.81h-.07l.05,.6c.09,1.15,.13,2.2,.13,3.15v7.05h-2.01v-13.56h2.69l6.65,10.75h.06c-.01-.14-.04-.66-.07-1.55-.04-.89-.06-1.59-.06-2.09v-7.11h2.03v13.56Z"/><path class="cls-4" d="M291.69,63.72h-2.22v-11.66h-3.99v-1.9h10.2v1.9h-3.99v11.66Z"/><path class="cls-4" d="M307.8,63.72h-7.67v-13.56h7.67v1.87h-5.46v3.69h5.11v1.86h-5.11v4.26h5.46v1.88Z"/><path class="cls-4" d="M323.1,63.72h-2.55l-3.39-5.55-3.42,5.55h-2.38l4.5-7.03-4.21-6.53h2.47l3.13,5.13,3.14-5.13h2.39l-4.24,6.57,4.56,7Z"/><path class="cls-4" d="M331.99,63.72h-2.22v-11.66h-3.99v-1.9h10.2v1.9h-3.99v11.66Z"/></g></g></svg>