<svg width="16" height="16" fill="none" xmlns="http://www.w3.org/2000/svg"><path d="M10.094 1.094a2.243 2.243 0 0 1 1.562 2.781l-.187.625a5.491 5.491 0 0 1-.375 1H14c1.094 0 2 .906 2 2 0 .563-.25 1.063-.594 1.438.063.187.094.374.094.593 0 .625-.313 1.219-.813 1.594.032.125.063.25.063.406 0 .625-.313 1.188-.75 1.563-.063 1.062-.938 1.937-2 1.937H8.937A3.538 3.538 0 0 1 7 14.437l-1.938-1.28c-.343-.25-.437-.72-.187-1.063a.717.717 0 0 1 1.031-.188l1.938 1.281c.312.22.687.313 1.093.313H12c.25 0 .5-.219.5-.5 0-.031-.031-.094-.031-.125a.782.782 0 0 1 .437-.906.508.508 0 0 0 .344-.469.465.465 0 0 0-.125-.281.803.803 0 0 1-.094-.75c.063-.25.281-.406.563-.469.219-.031.406-.25.406-.5 0-.125-.063-.219-.125-.313a.705.705 0 0 1-.188-.687.8.8 0 0 1 .47-.531.508.508 0 0 0 .343-.469c0-.25-.25-.5-.5-.5H9.812a.729.729 0 0 1-.656-.406c-.125-.25-.125-.532.031-.75a6.04 6.04 0 0 0 .844-1.75l.188-.625a.782.782 0 0 0-.531-.938.782.782 0 0 0-.938.531l-.156.626a4.5 4.5 0 0 1-.938 1.687l-1.625 1.75a.747.747 0 0 1-1.062.063.774.774 0 0 1-.032-1.063l1.594-1.75c.282-.313.5-.688.625-1.094l.157-.625a2.243 2.243 0 0 1 2.78-1.562ZM1 6h2c.531 0 1 .469 1 1v7c0 .563-.469 1-1 1H1c-.563 0-1-.438-1-1V7c0-.531.438-1 1-1Z" fill="#6D6A78"/></svg>