<svg width="16" height="15" fill="none" xmlns="http://www.w3.org/2000/svg"><path d="M10.094 13.938c-1.188.343-2.438-.376-2.781-1.563l-.157-.625a2.94 2.94 0 0 0-.625-1.094l-1.593-1.75a.774.774 0 0 1 .03-1.062.747.747 0 0 1 1.063.062l1.625 1.75c.438.469.75 1.063.938 1.688l.156.625a.782.782 0 0 0 .938.531.782.782 0 0 0 .53-.938l-.187-.624a6.04 6.04 0 0 0-.844-1.75c-.156-.22-.156-.532-.03-.782A.729.729 0 0 1 9.811 8H14c.25 0 .5-.219.5-.5 0-.188-.156-.375-.344-.469-.219-.062-.406-.281-.469-.5-.062-.25 0-.5.188-.687A.568.568 0 0 0 14 5.5a.5.5 0 0 0-.406-.469c-.281-.062-.5-.25-.563-.468a.803.803 0 0 1 .094-.75.477.477 0 0 0 .125-.313c0-.188-.156-.375-.344-.469-.344-.125-.531-.5-.437-.875 0-.062.031-.094.031-.156 0-.25-.25-.5-.5-.5H8.937c-.406 0-.78.125-1.093.344L5.906 3.125a.7.7 0 0 1-1.031-.219c-.25-.344-.156-.781.188-1.031L7 .594A3.538 3.538 0 0 1 8.938 0H12c1.063 0 1.938.875 2 1.938.438.375.75.937.75 1.562 0 .156-.031.281-.063.406a1.968 1.968 0 0 1 .72 2.188c.343.375.593.875.593 1.406 0 1.125-.906 2-2 2h-2.906c.156.344.281.688.375 1.031l.187.625a2.243 2.243 0 0 1-1.562 2.781ZM1 11c-.563 0-1-.438-1-1V3c0-.531.438-1 1-1h2c.531 0 1 .469 1 1v7c0 .563-.469 1-1 1H1Z" fill="#6D6A78"/></svg>