<svg id="Ebene_2" xmlns="http://www.w3.org/2000/svg" viewBox="0 0 336.96 74.83"><defs><style>.cls-1{fill:#c5231b}.cls-4{fill:#00223d}</style></defs><g id="Ebene_1-2"><path class="cls-1" d="M46.09 32.7a2.716 2.716 0 1 1-3.84-3.842 2.716 2.716 0 0 1 3.84 3.842Z"/><path d="M46.88 40.22c-1.5 0-2.72-1.22-2.72-2.72s1.22-2.72 2.72-2.72S49.6 36 49.6 37.5s-1.22 2.72-2.72 2.72Zm-4.75 5.87a2.716 2.716 0 1 1 3.842-3.84 2.716 2.716 0 0 1-3.842 3.84Zm-7.52.79c0-1.5 1.22-2.72 2.72-2.72 1.5 0 2.72 1.22 2.72 2.72s-1.22 2.72-2.72 2.72-2.72-1.22-2.72-2.72Zm-5.88-4.75a2.716 2.716 0 0 1 3.84 0 2.728 2.728 0 0 1 0 3.85 2.716 2.716 0 0 1-3.84 0 2.728 2.728 0 0 1 0-3.85Zm-.78-7.52c1.5 0 2.72 1.22 2.72 2.72s-1.22 2.72-2.72 2.72-2.72-1.22-2.72-2.72 1.22-2.72 2.72-2.72Zm4.75-5.87a2.716 2.716 0 1 1-3.842 3.84 2.716 2.716 0 0 1 3.842-3.84Zm7.52-.79c0 1.5-1.22 2.72-2.72 2.72s-2.72-1.22-2.72-2.72 1.22-2.72 2.72-2.72 2.72 1.22 2.72 2.72Z" style="fill:#00617e"/><path d="M19.53 10.99c2.4 2.38 2.42 6.25.05 8.65-2.37 2.4-6.25 2.42-8.65.04s-2.42-6.25-.05-8.65a6.123 6.123 0 0 1 8.65-.05Z" style="fill:#e64536"/><path class="cls-1" d="M63.92 19.65a6.114 6.114 0 0 1-8.65 0 6.114 6.114 0 0 1 0-8.65 6.114 6.114 0 0 1 8.65 0 6.114 6.114 0 0 1 0 8.65Zm-10.34 7.53a4.095 4.095 0 0 1-5.77 0 4.086 4.086 0 0 1 0-5.77 4.074 4.074 0 0 1 5.76 0 4.086 4.086 0 0 1 0 5.77Z"/><path class="cls-4" d="M43.62 6.11a6.12 6.12 0 1 1-12.24 0C31.38 2.73 34.12 0 37.5 0s6.12 2.74 6.12 6.11Zm25.1 37.46c-3.38 0-6.12-2.73-6.12-6.11 0-3.38 2.73-6.12 6.11-6.12 3.38 0 6.12 2.73 6.12 6.11 0 3.38-2.73 6.12-6.11 6.12Zm-13.5 20.32a6.123 6.123 0 0 1-.02-8.65 6.123 6.123 0 0 1 8.65-.02c2.39 2.38 2.4 6.26.02 8.65a6.123 6.123 0 0 1-8.65.02Zm-23.91 4.84a6.111 6.111 0 0 1 6.1-6.13c3.38 0 6.12 2.72 6.13 6.1 0 3.38-2.72 6.12-6.1 6.13-3.38 0-6.12-2.72-6.13-6.1ZM10.96 55.26a6.114 6.114 0 0 1 8.65-.03c2.4 2.38 2.41 6.25.03 8.65a6.114 6.114 0 0 1-8.65.03 6.114 6.114 0 0 1-.03-8.65ZM6.09 31.35a6.105 6.105 0 0 1 6.14 6.09 6.105 6.105 0 0 1-6.09 6.14A6.103 6.103 0 0 1 0 37.5a6.105 6.105 0 0 1 6.09-6.14Zm13.44-20.36c2.4 2.38 2.42 6.25.05 8.65-2.37 2.4-6.25 2.42-8.65.04s-2.42-6.25-.05-8.65a6.123 6.123 0 0 1 8.65-.05Zm22.05 7.75c0 2.25-1.83 4.08-4.08 4.08s-4.08-1.83-4.08-4.08 1.83-4.08 4.08-4.08 4.08 1.83 4.08 4.08Zm14.5 22.9a4.07 4.07 0 0 1-4.06-4.09 4.07 4.07 0 0 1 4.09-4.06 4.07 4.07 0 0 1 4.06 4.09 4.07 4.07 0 0 1-4.09 4.06ZM47.6 53.61a4.086 4.086 0 0 1 .03-5.77 4.086 4.086 0 0 1 5.77.03 4.086 4.086 0 0 1-.03 5.77 4.086 4.086 0 0 1-5.77-.03Zm-14.47 2.45a4.07 4.07 0 0 1 4.1-4.05 4.07 4.07 0 0 1 4.05 4.1 4.07 4.07 0 0 1-4.1 4.05 4.07 4.07 0 0 1-4.05-4.1Zm-11.95-8.51a4.086 4.086 0 0 1 5.77.04 4.077 4.077 0 0 1-.05 5.77 4.086 4.086 0 0 1-5.77-.04 4.065 4.065 0 0 1 .05-5.76Zm-2.4-14.47c2.25.02 4.06 1.86 4.04 4.12a4.078 4.078 0 0 1-4.12 4.04 4.078 4.078 0 0 1-4.04-4.12 4.078 4.078 0 0 1 4.12-4.04Zm8.55-11.93a4.086 4.086 0 0 1-.06 5.77c-1.61 1.57-4.19 1.55-5.76-.06a4.077 4.077 0 0 1 .06-5.77 4.077 4.077 0 0 1 5.77.06Z"/><path class="cls-1" d="m105.19 39.79-6.88-22.4h-.18c.25 4.56.37 7.6.37 9.12v13.28h-5.41V11.23h8.24l6.76 21.84h.12l7.17-21.84h8.24v28.55h-5.64V26.26c0-.64 0-1.37.03-2.21.02-.83.11-3.05.26-6.64h-.18l-7.36 22.36h-5.55Zm51.54-14.32c0 4.73-1.17 8.36-3.52 10.9s-5.7 3.81-10.08 3.81-7.73-1.27-10.08-3.81-3.52-6.18-3.52-10.94 1.17-8.38 3.53-10.89c2.35-2.51 5.72-3.76 10.11-3.76s7.74 1.26 10.07 3.79c2.32 2.53 3.49 6.16 3.49 10.9Zm-20.84 0c0 3.19.61 5.59 1.82 7.21 1.21 1.61 3.02 2.42 5.43 2.42 4.83 0 7.25-3.21 7.25-9.63s-2.4-9.65-7.21-9.65c-2.41 0-4.23.81-5.45 2.43-1.22 1.62-1.84 4.03-1.84 7.22Zm32.81 3.36v10.96h-6.05V11.23h8.32c3.88 0 6.75.71 8.61 2.12 1.86 1.41 2.79 3.56 2.79 6.44 0 1.68-.46 3.17-1.39 4.48-.92 1.31-2.23 2.33-3.93 3.08 4.3 6.42 7.1 10.57 8.4 12.44h-6.72l-6.82-10.96h-3.22Zm0-4.92h1.95c1.91 0 3.33-.32 4.24-.96.91-.64 1.37-1.64 1.37-3.01s-.47-2.32-1.4-2.89c-.93-.57-2.37-.86-4.33-.86h-1.84v7.71Zm36.8 15.88h-16.45V11.23h16.45v4.96h-10.39v6.27h9.67v4.96h-9.67v7.36h10.39v5Zm22.4-7.6c0 2.51-.91 4.47-2.73 5.88-1.82 1.41-4.3 2.11-7.42 2.11-3.38 0-5.99-.44-7.81-1.31v-3.2c1.17.5 2.45.89 3.83 1.17 1.38.29 2.75.43 4.1.43 2.21 0 3.88-.42 5-1.26 1.12-.84 1.68-2.01 1.68-3.51 0-.99-.2-1.8-.6-2.43-.4-.63-1.06-1.21-1.99-1.75-.93-.53-2.35-1.14-4.25-1.82-2.66-.95-4.55-2.08-5.69-3.38-1.14-1.3-1.71-3-1.71-5.1 0-2.2.83-3.95 2.48-5.25 1.65-1.3 3.84-1.95 6.56-1.95s5.45.52 7.83 1.56l-1.04 2.89c-2.36-.99-4.65-1.48-6.88-1.48-1.76 0-3.13.38-4.12 1.13-.99.76-1.48 1.8-1.48 3.14 0 .99.18 1.8.55 2.43.37.63.98 1.21 1.85 1.74.87.53 2.19 1.11 3.97 1.75 3 1.07 5.06 2.21 6.18 3.44 1.13 1.22 1.69 2.81 1.69 4.77Zm30.63-6.72c0 4.57-1.15 8.16-3.47 10.78-2.31 2.62-5.52 3.93-9.64 3.93s-7.45-1.29-9.74-3.86-3.43-6.2-3.43-10.89 1.15-8.25 3.44-10.81c2.29-2.56 5.55-3.84 9.77-3.84s7.3 1.3 9.61 3.91c2.3 2.6 3.46 6.2 3.46 10.78Zm-22.75 0c0 3.87.82 6.8 2.47 8.8 1.65 2 4.04 3 7.18 3s5.55-1 7.17-2.99c1.62-1.99 2.42-4.93 2.42-8.81s-.8-6.75-2.41-8.74c-1.61-1.99-3.99-2.98-7.14-2.98s-5.57 1-7.22 3c-1.65 2-2.47 4.91-2.47 8.72ZM283 19.55c0 2.89-.99 5.11-2.96 6.67-1.97 1.56-4.79 2.33-8.47 2.33h-3.36v11.23h-3.32V11.23h7.4c7.14 0 10.7 2.77 10.7 8.32Zm-14.79 6.15h2.99c2.94 0 5.07-.48 6.39-1.43 1.32-.95 1.97-2.47 1.97-4.57 0-1.89-.62-3.29-1.86-4.22-1.24-.92-3.16-1.39-5.78-1.39h-3.71v11.6Zm42.44 14.09h-3.32V26.35h-15.04v13.44h-3.32V11.23h3.32v12.15h15.04V11.23h3.32v28.55Zm15.1-14.28 7.62-14.28h3.59l-9.53 17.48v11.07h-3.36V28.86l-9.51-17.64h3.63l7.56 14.28Z"/><path class="cls-4" d="M98.23 51.86c-1.27 0-2.28.45-3.01 1.35-.73.9-1.09 2.15-1.09 3.74s.35 2.92 1.05 3.78c.7.85 1.72 1.28 3.05 1.28.58 0 1.13-.06 1.67-.17.54-.11 1.1-.26 1.68-.44v1.9c-1.06.4-2.27.6-3.62.6-1.99 0-3.51-.6-4.57-1.8-1.06-1.2-1.6-2.92-1.6-5.16 0-1.41.26-2.64.77-3.7.52-1.06 1.26-1.87 2.24-2.43.98-.56 2.12-.84 3.44-.84 1.39 0 2.67.29 3.84.87l-.8 1.85c-.46-.22-.94-.41-1.45-.57-.51-.16-1.05-.25-1.61-.25Zm20.69 5.06c0 2.21-.55 3.92-1.66 5.15-1.1 1.22-2.67 1.84-4.69 1.84s-3.62-.61-4.72-1.82c-1.1-1.21-1.65-2.94-1.65-5.18s.55-3.96 1.66-5.16c1.1-1.2 2.68-1.8 4.73-1.8s3.57.61 4.68 1.83c1.1 1.22 1.65 2.94 1.65 5.15Zm-10.35 0c0 1.67.34 2.94 1.01 3.8.67.86 1.67 1.29 3 1.29s2.31-.43 2.98-1.28c.67-.85 1.01-2.12 1.01-3.81s-.33-2.93-1-3.79c-.66-.86-1.66-1.29-2.97-1.29s-2.33.43-3.01 1.29c-.68.86-1.02 2.12-1.02 3.79Zm26.94 6.8h-2.72l-6.67-10.81h-.07l.05.6c.09 1.15.13 2.2.13 3.15v7.05h-2.01V50.15h2.69l6.65 10.75h.06a50.3 50.3 0 0 1-.07-1.55c-.04-.89-.06-1.59-.06-2.09v-7.11h2.03v13.56Zm10.64 0h-2.22V52.06h-3.99v-1.9h10.2v1.9h-3.99v11.66Zm16.11 0h-7.67V50.16h7.67v1.87h-5.46v3.69h5.11v1.86h-5.11v4.26h5.46v1.88Zm16.61 0h-2.72l-6.67-10.81h-.07l.05.6c.09 1.15.13 2.2.13 3.15v7.05h-2.01V50.15h2.69l6.65 10.75h.06a50.3 50.3 0 0 1-.07-1.55c-.04-.89-.06-1.59-.06-2.09v-7.11h2.03v13.56Zm10.64 0h-2.22V52.06h-3.99v-1.9h10.2v1.9h-3.99v11.66Zm15.75 0V50.16h2.22v13.56h-2.22Zm19.47 0h-2.72l-6.67-10.81h-.07l.05.6c.09 1.15.13 2.2.13 3.15v7.05h-2.01V50.15h2.69l6.65 10.75h.06a50.3 50.3 0 0 1-.07-1.55c-.04-.89-.06-1.59-.06-2.09v-7.11h2.03v13.56Zm19.04-11.86c-1.27 0-2.28.45-3.01 1.35-.73.9-1.09 2.15-1.09 3.74s.35 2.92 1.05 3.78c.7.85 1.72 1.28 3.05 1.28.58 0 1.13-.06 1.67-.17.54-.11 1.1-.26 1.68-.44v1.9c-1.06.4-2.27.6-3.62.6-1.99 0-3.51-.6-4.57-1.8-1.06-1.2-1.6-2.92-1.6-5.16 0-1.41.26-2.64.78-3.7s1.26-1.87 2.24-2.43c.98-.56 2.12-.84 3.44-.84 1.39 0 2.67.29 3.84.87l-.8 1.85c-.46-.22-.94-.41-1.45-.57-.51-.16-1.05-.25-1.61-.25Zm20.69 5.06c0 2.21-.55 3.92-1.66 5.15s-2.67 1.84-4.69 1.84-3.62-.61-4.72-1.82c-1.1-1.21-1.65-2.94-1.65-5.18s.55-3.96 1.66-5.16c1.1-1.2 2.68-1.8 4.73-1.8s3.57.61 4.68 1.83c1.1 1.22 1.65 2.94 1.65 5.15Zm-10.35 0c0 1.67.34 2.94 1.01 3.8.67.86 1.67 1.29 3 1.29s2.31-.43 2.98-1.28 1.01-2.12 1.01-3.81-.33-2.93-1-3.79c-.67-.86-1.66-1.29-2.97-1.29s-2.33.43-3.01 1.29c-.68.86-1.02 2.12-1.02 3.79Zm26.94 6.8h-2.72l-6.67-10.81h-.07l.05.6c.09 1.15.13 2.2.13 3.15v7.05h-2.01V50.15h2.69l6.65 10.75h.06a50.3 50.3 0 0 1-.07-1.55c-.04-.89-.06-1.59-.06-2.09v-7.11h2.03v13.56Zm10.64 0h-2.22V52.06h-3.99v-1.9h10.2v1.9h-3.99v11.66Zm16.11 0h-7.67V50.16h7.67v1.87h-5.46v3.69h5.11v1.86h-5.11v4.26h5.46v1.88Zm15.3 0h-2.55l-3.39-5.55-3.42 5.55h-2.38l4.5-7.03-4.21-6.53h2.47l3.13 5.13 3.14-5.13h2.39l-4.24 6.57 4.56 7Zm8.89 0h-2.22V52.06h-3.99v-1.9h10.2v1.9h-3.99v11.66Z"/></g></svg>